<?xml version="1.0" encoding="UTF-8" standalone="no"?>
<svg
   xmlns:dc="http://purl.org/dc/elements/1.1/"
   xmlns:cc="http://creativecommons.org/ns#"
   xmlns:rdf="http://www.w3.org/1999/02/22-rdf-syntax-ns#"
   xmlns:svg="http://www.w3.org/2000/svg"
   xmlns="http://www.w3.org/2000/svg"
   xmlns:sodipodi="http://sodipodi.sourceforge.net/DTD/sodipodi-0.dtd"
   xmlns:inkscape="http://www.inkscape.org/namespaces/inkscape"
   version="1.0"
   width="200.000000pt"
   height="200.000000pt"
   viewBox="0 0 200.000000 200.000000"
   preserveAspectRatio="xMidYMid meet"
   id="svg16"
   sodipodi:docname="Nea-Onnim-No-Sua-A-Ohu_transp-blanco.svg"
   inkscape:version="0.92.3 (2405546, 2018-03-11)">
  <defs
     id="defs20" />
  <sodipodi:namedview
     pagecolor="#ffffff"
     bordercolor="#666666"
     borderopacity="1"
     objecttolerance="10"
     gridtolerance="10"
     guidetolerance="10"
     inkscape:pageopacity="0"
     inkscape:pageshadow="2"
     inkscape:window-width="1366"
     inkscape:window-height="719"
     id="namedview18"
     showgrid="false"
     inkscape:pagecheckerboard="true"
     inkscape:zoom="2.01"
     inkscape:cx="133.33333"
     inkscape:cy="133.33333"
     inkscape:window-x="0"
     inkscape:window-y="25"
     inkscape:window-maximized="1"
     inkscape:current-layer="svg16" />
  <metadata
     id="metadata10">
Created by potrace 1.15, written by Peter Selinger 2001-2017
<rdf:RDF>
  <cc:Work
     rdf:about="">
    <dc:format>image/svg+xml</dc:format>
    <dc:type
       rdf:resource="http://purl.org/dc/dcmitype/StillImage" />
    <dc:title></dc:title>
  </cc:Work>
</rdf:RDF>
</metadata>
  <g
     transform="translate(0.000000,200.000000) scale(0.100000,-0.100000)"
     fill="#000000"
     stroke="none"
     id="g14"
     style="fill:#ffffff">
    <path
       d="M40 1900 l0 -60 280 0 280 0 0 -60 0 -60 -260 0 -260 0 0 -60 0 -60 260 0 260 0 0 -80 0 -80 -260 0 -260 0 0 -440 0 -440 260 0 260 0 0 -80 0 -80 -260 0 -260 0 0 -60 0 -60 260 0 260 0 0 -60 0 -60 -280 0 -280 0 0 -60 0 -60 340 0 340 0 0 340 0 340 100 0 100 0 0 -300 0 -300 80 0 80 0 0 300 0 300 100 0 100 0 0 -340 0 -340 340 0 340 0 0 60 0 60 -280 0 -280 0 0 60 0 60 260 0 260 0 0 60 0 60 -260 0 -260 0 0 80 0 80 260 0 260 0 0 440 0 440 -260 0 -260 0 0 80 0 80 260 0 260 0 0 60 0 60 -260 0 -260 0 0 60 0 60 280 0 280 0 0 60 0 60 -340 0 -340 0 0 -340 0 -340 -100 0 -100 0 0 300 0 300 -80 0 -80 0 0 -300 0 -300 -100 0 -100 0 0 340 0 340 -340 0 -340 0 0 -60z m280 -900 l0 -320 -60 0 -60 0 0 320 0 320 60 0 60 0 0 -320z m280 0 l0 -320 -80 0 -80 0 0 320 0 320 80 0 80 0 0 -320z m960 0 l0 -320 -80 0 -80 0 0 320 0 320 80 0 80 0 0 -320z m240 0 l0 -320 -60 0 -60 0 0 320 0 320 60 0 60 0 0 -320z m-520 110 l0 -50 -280 0 -280 0 0 50 0 50 280 0 280 0 0 -50z m0 -220 l0 -50 -280 0 -280 0 0 50 0 50 280 0 280 0 0 -50z"
       id="path12"
       style="fill:#ffffff" />
  </g>
</svg>
